<svg width="53" height="35" viewBox="0 0 53 35" fill="none" xmlns="http://www.w3.org/2000/svg"><path d="M28.159 18.617c3.275 0 5.955 3.443 5.955 4.303 0 .86-2.68 3.73-5.955 3.73s-5.657-3.73-5.657-3.73 2.382-4.303 5.657-4.303z" fill="#FFFDFB"/><path d="M18.928 19.478l3.573 3.442m0 0l-3.573 3.443m3.573-3.443s2.383 3.73 5.658 3.73c3.275 0 5.955-2.87 5.955-3.73 0-.86-2.68-4.303-5.955-4.303s-5.657 4.303-5.657 4.303z" stroke="#FFFDFB" stroke-width="2" stroke-linecap="round" stroke-linejoin="round"/><mask id="a" fill="#fff"><path d="M52.984 33.294l-3.326-22.407c-.11-.736-.764-1.283-1.537-1.283h-4.075c-.716-3.095-3.539-4.012-3.85-4.111-1.528-2.949-4.67-3.085-5.008-3.097C33.322.46 30.814.45 29.477.781c-1.19-.682-3.6-1.349-5.954 0-1.338-.33-3.847-.321-5.711 1.615-.334.012-3.482.148-5.009 3.097-.316.101-3.135 1.022-3.85 4.111H4.88c-.773 0-1.428.548-1.537 1.283L.016 33.294c-.064.43.069.864.364 1.19.294.328.723.516 1.173.516h49.894c.45 0 .878-.188 1.173-.515.295-.328.428-.762.364-1.19zM13.538 7.104a1.536 1.536 0 001.318-1.098c.313-1.126 2.33-1.929 3.426-1.75a1.575 1.575 0 001.588-.7c.592-.942 2.181-1.4 3.22-.91a1.6 1.6 0 001.73-.24c.846-.744 2.51-.747 3.36 0a1.6 1.6 0 001.731.24c1.023-.483 3.213-.046 3.814.91.33.525.96.802 1.588.7 1.116-.183 3.119.643 3.426 1.75a1.535 1.535 0 001.318 1.098c.15.017 1.274 1.358 1.898 2.5H11.044c.57-1.045 2.189-2.466 2.494-2.5zM1.556 33.733l3.479-22.861h42.93l3.478 22.86H1.556z"/><path d="M13.538 7.104a1.536 1.536 0 001.318-1.098c.313-1.126 2.33-1.929 3.426-1.75a1.575 1.575 0 001.588-.7c.592-.942 2.181-1.4 3.22-.91a1.6 1.6 0 001.73-.24c.846-.744 2.51-.747 3.36 0a1.6 1.6 0 001.731.24c1.023-.483 3.213-.046 3.814.91.33.525.96.802 1.588.7 1.116-.183 3.119.643 3.426 1.75a1.535 1.535 0 001.318 1.098c.15.017 1.274 1.358 1.898 2.5H11.044c.57-1.045 2.189-2.466 2.494-2.5z"/></mask><path d="M52.984 33.294l-3.326-22.407c-.11-.736-.764-1.283-1.537-1.283h-4.075c-.716-3.095-3.539-4.012-3.85-4.111-1.528-2.949-4.67-3.085-5.008-3.097C33.322.46 30.814.45 29.477.781c-1.19-.682-3.6-1.349-5.954 0-1.338-.33-3.847-.321-5.711 1.615-.334.012-3.482.148-5.009 3.097-.316.101-3.135 1.022-3.85 4.111H4.88c-.773 0-1.428.548-1.537 1.283L.016 33.294c-.064.43.069.864.364 1.19.294.328.723.516 1.173.516h49.894c.45 0 .878-.188 1.173-.515.295-.328.428-.762.364-1.19zM13.538 7.104a1.536 1.536 0 001.318-1.098c.313-1.126 2.33-1.929 3.426-1.75a1.575 1.575 0 001.588-.7c.592-.942 2.181-1.4 3.22-.91a1.6 1.6 0 001.73-.24c.846-.744 2.51-.747 3.36 0a1.6 1.6 0 001.731.24c1.023-.483 3.213-.046 3.814.91.33.525.96.802 1.588.7 1.116-.183 3.119.643 3.426 1.75a1.535 1.535 0 001.318 1.098c.15.017 1.274 1.358 1.898 2.5H11.044c.57-1.045 2.189-2.466 2.494-2.5zM1.556 33.733l3.479-22.861h42.93l3.478 22.86H1.556z" fill="#FFFDFB"/><path d="M13.538 7.104a1.536 1.536 0 001.318-1.098c.313-1.126 2.33-1.929 3.426-1.75a1.575 1.575 0 001.588-.7c.592-.942 2.181-1.4 3.22-.91a1.6 1.6 0 001.73-.24c.846-.744 2.51-.747 3.36 0a1.6 1.6 0 001.731.24c1.023-.483 3.213-.046 3.814.91.33.525.96.802 1.588.7 1.116-.183 3.119.643 3.426 1.75a1.535 1.535 0 001.318 1.098c.15.017 1.274 1.358 1.898 2.5H11.044c.57-1.045 2.189-2.466 2.494-2.5z" fill="#FFFDFB"/><path d="M52.984 33.294l-3.326-22.407c-.11-.736-.764-1.283-1.537-1.283h-4.075c-.716-3.095-3.539-4.012-3.85-4.111-1.528-2.949-4.67-3.085-5.008-3.097C33.322.46 30.814.45 29.477.781c-1.19-.682-3.6-1.349-5.954 0-1.338-.33-3.847-.321-5.711 1.615-.334.012-3.482.148-5.009 3.097-.316.101-3.135 1.022-3.85 4.111H4.88c-.773 0-1.428.548-1.537 1.283L.016 33.294c-.064.43.069.864.364 1.19.294.328.723.516 1.173.516h49.894c.45 0 .878-.188 1.173-.515.295-.328.428-.762.364-1.19zM13.538 7.104a1.536 1.536 0 001.318-1.098c.313-1.126 2.33-1.929 3.426-1.75a1.575 1.575 0 001.588-.7c.592-.942 2.181-1.4 3.22-.91a1.6 1.6 0 001.73-.24c.846-.744 2.51-.747 3.36 0a1.6 1.6 0 001.731.24c1.023-.483 3.213-.046 3.814.91.33.525.96.802 1.588.7 1.116-.183 3.119.643 3.426 1.75a1.535 1.535 0 001.318 1.098c.15.017 1.274 1.358 1.898 2.5H11.044c.57-1.045 2.189-2.466 2.494-2.5zM1.556 33.733l3.479-22.861h42.93l3.478 22.86H1.556z" stroke="#FFFDFB" stroke-width="2" mask="url(#a)"/><path d="M13.538 7.104a1.536 1.536 0 001.318-1.098c.313-1.126 2.33-1.929 3.426-1.75a1.575 1.575 0 001.588-.7c.592-.942 2.181-1.4 3.22-.91a1.6 1.6 0 001.73-.24c.846-.744 2.51-.747 3.36 0a1.6 1.6 0 001.731.24c1.023-.483 3.213-.046 3.814.91.33.525.96.802 1.588.7 1.116-.183 3.119.643 3.426 1.75a1.535 1.535 0 001.318 1.098c.15.017 1.274 1.358 1.898 2.5H11.044c.57-1.045 2.189-2.466 2.494-2.5z" stroke="#FFFDFB" stroke-width="2" mask="url(#a)"/></svg>