<?xml version="1.0" encoding="utf-8"?><svg width="18" height="101" viewBox="0 0 18 101" xmlns="http://www.w3.org/2000/svg" xmlns:xlink="http://www.w3.org/1999/xlink"><svg width="18" height="18" fill="none" viewBox="0 0 18 18" id="ball" xmlns="http://www.w3.org/2000/svg"><path d="M16.343 14.686h-4.54A7.875 7.875 0 0015.74 7.87C15.74 3.53 12.21 0 7.87 0 3.53 0 0 3.53 0 7.87s3.53 7.87 7.87 7.87h8.473a.603.603 0 010 1.205H9A.527.527 0 109 18h7.343a1.658 1.658 0 000-3.314zm-8.473 0A6.86 6.86 0 017 14.63l5.762-3.327.727.42a6.813 6.813 0 01-5.619 2.963zM4.048 13.51l6.268-3.619 1.391.804-6.188 3.573a6.802 6.802 0 01-1.471-.758zM3.506 2.64c.423-.354.89-.658 1.391-.902v7.24l-1.391.803V2.64zm2.446-1.31a6.765 6.765 0 011.391-.255v6.49l-1.391.804V1.33zm8.734 6.54a6.9 6.9 0 01-.018.492l-6.27-3.62V3.135l6.188 3.573c.066.378.1.766.1 1.162zM8.398 5.96l6.096 3.519c-.113.464-.273.91-.476 1.332l-5.62-3.245V5.959zm5.761-.716L8.398 1.917v-.842a6.83 6.83 0 015.761 4.169zM2.451 3.742v6.648l-.729.42a6.775 6.775 0 01-.667-2.94A6.78 6.78 0 012.45 3.742zm-.2 7.981l5.62-3.244 1.39.803L3.17 12.8a6.872 6.872 0 01-.917-1.077z" fill="#777"/></svg><svg width="18" height="18" fill="none" viewBox="0 0 18 18" id="empty" y="18" xmlns="http://www.w3.org/2000/svg"><path d="M18 9a8.941 8.941 0 01-2.636 6.364A8.941 8.941 0 019 18a8.943 8.943 0 01-4.694-1.318l1.032-1.032c1.087.601 2.335.944 3.662.944 4.187 0 7.594-3.407 7.594-7.594a7.546 7.546 0 00-.944-3.662l1.032-1.032A8.942 8.942 0 0118 9zM1.025 17.97l-.995-.994 2.128-2.128A8.933 8.933 0 010 9c0-2.404.936-4.664 2.636-6.364A8.941 8.941 0 019 0c2.168 0 4.219.762 5.848 2.158L16.974.03l.995.995L1.025 17.97zm2.134-4.123L13.847 3.159A7.558 7.558 0 009 1.406C4.813 1.406 1.406 4.813 1.406 9c0 1.841.659 3.53 1.753 4.847z" fill="#777"/></svg><svg width="12" height="15" fill="none" viewBox="0 0 12 15" id="filter" y="36" xmlns="http://www.w3.org/2000/svg"><path d="M4.5 8.684L0 1.58V0h12v1.579L7.5 8.684v4.737L4.5 15V8.684z" fill="#1A212F"/></svg><svg width="18" height="18" fill="none" viewBox="0 0 18 18" id="house" y="51" xmlns="http://www.w3.org/2000/svg"><path d="M17.846 8.062L10.337.554A1.878 1.878 0 009 0c-.506 0-.98.197-1.337.554L.154 8.062a.527.527 0 000 .746l.565.565a2.122 2.122 0 002.105.536v7.564c0 .29.236.527.528.527h11.297a.527.527 0 00.527-.527V9.909a2.122 2.122 0 002.104-.536l.565-.565a.528.528 0 000-.746zM14.12 9.218v5.468h-2.334v-3.427A2.785 2.785 0 009 8.473a2.785 2.785 0 00-2.787 2.786v3.427H3.88V9.218L9 4.098l5.121 5.12zM3.88 15.741h2.334v1.204H3.88v-1.204zm3.389 1.204V11.26A1.73 1.73 0 019 9.527a1.73 1.73 0 011.732 1.732v5.686H7.268zm4.519 0v-1.204h2.334v1.204h-2.334zm4.748-8.318a1.07 1.07 0 01-1.513 0l-.01-.01-5.64-5.638a.527.527 0 00-.745 0L2.99 8.617a1.07 1.07 0 01-1.523.01l-.193-.192L8.41 1.299a.836.836 0 011.182 0l7.136 7.136-.192.192z" fill="#777"/></svg><svg width="18" height="14" fill="none" viewBox="0 0 18 14" id="sofa" y="69" xmlns="http://www.w3.org/2000/svg"><path d="M17.995 3.923C17.89 1.723 16.265 0 14.293 0H3.707C1.735 0 .109 1.723.005 3.923.002 3.996 0 12.107 0 12.107 0 13.15.76 14 1.693 14h14.614C17.24 14 18 13.15 18 12.107c0 0-.002-8.111-.005-8.184zM3.707.875h10.586c1.415 0 2.604 1.124 2.87 2.633h-.806c-.252-1.032-1.087-1.758-2.064-1.758H9.166c-.216 0 .391.196.391.437 0 .242-.607.438-.39.438h5.126c.544 0 1.019.354 1.235.883h-.39c-.976 0-1.776.857-1.83 1.933A12.993 12.993 0 009 4.717c-1.47 0-2.94.241-4.307.724-.055-1.076-.856-1.933-1.832-1.933h-.39c.217-.529.692-.883 1.236-.883h5.46c.215 0 .39-.196.39-.438 0-.241-.175-.437-.39-.437h-5.46c-.978 0-1.813.726-2.065 1.758H.838C1.103 2 2.292.875 3.707.875zm9.597 5.485v1.486c0 .648-.472 1.176-1.052 1.176H5.747c-.58 0-1.051-.528-1.051-1.176V6.36c2.716-1.026 5.892-1.026 8.608 0zm3.913 5.747c0 .561-.408 1.018-.91 1.018H1.693c-.502 0-.91-.457-.91-1.018V4.383H2.86c.58 0 1.052.528 1.052 1.176v2.287c0 1.13.823 2.05 1.834 2.05h7.11c.45 0 1.23-.552 1.23-2.05V5.56c0-.648.472-1.176 1.051-1.176h2.08v7.724z" fill="#777"/></svg><svg width="16" height="18" fill="none" viewBox="0 0 16 18" id="toy" y="83" xmlns="http://www.w3.org/2000/svg"><path d="M15.117 15.313h-4.95V2.687h1.937V7.68c-.582.134-1.019.674-1.019 1.319 0 .745.582 1.35 1.298 1.35.715 0 1.298-.605 1.298-1.35 0-.645-.437-1.185-1.02-1.319V2.687h1.702c.487 0 .882-.412.882-.919v-.85c0-.506-.395-.918-.882-.918H1.637C1.151 0 .755.412.755.919v.85c0 .506.396.918.882.918h4.196v12.626H.882c-.487 0-.883.412-.883.919v.85c0 .506.396.918.883.918h14.234c.487 0 .883-.412.883-.919v-.85c0-.506-.396-.918-.883-.918zM13.123 9c0 .425-.332.77-.74.77s-.74-.345-.74-.77c0-.424.332-.77.74-.77s.74.346.74.77zM1.637 1.768v-.85c0-.186.273-.25.452-.25h12.086c.18 0 .325.064.325.25v.85c0 .186-.146.236-.325.236H2.09c-.179 0-.452-.05-.452-.236zm4.917 11.484h.312s.279-.13.279-.29c0-.16-.125-.29-.279-.29h-.312v-2.06h2.943c.154 0 1.097-.166.356-.326.74-.16-.202-.255-.356-.255H6.554V7.97h2.58c.154 0-.279-.13-.279-.29 0-.161.433-.291.279-.291h-2.58V2.687h2.943v2.06H6.31c-.154 0 0-.03 0 .13 0 .451-.163.451-.163.451h3.35v2.06h-.363a.285.285 0 00-.279.291c0 .16.125.29.279.29h.363v4.702h-2.63c-.155 0 .278.13.278.291 0 .16-.433.29-.279.29h2.631v2.061H6.554v-2.06zm8.764 3.83c0 .186-.282.232-.46.232H1.038c-.18 0-.325-.046-.325-.233v-.849c0-.186.146-.236.325-.236h13.954c.179 0 .325.05.325.236v.85z" fill="#777"/></svg></svg>