<svg width="456" height="425" viewBox="0 0 456 425" fill="none" xmlns="http://www.w3.org/2000/svg"><path d="M140.212 132.542c37.737 46.255-1.524 123.914-53.987 103.775-22.627-8.685-35.692-33.181-36.079-58.235-.891-57.864 57.669-85.26 90.066-45.54zm45.833 29.077c-58.032-22.277-37.649-127.311 23.692-122.32 27.945 2.278 49.724 30.915 46.497 66.743-3.607 40.162-37.565 68.1-70.189 55.577z" fill="#FAC663" fill-opacity=".15"/><path d="M133.758 342.439c8.913.87 23.766 4.928 38.817 10.468 15.914 5.843 32.049 13.336 41.632 20.413 25.864 19.166 72.739 14.811 79.624-28.963 6.361-40.469-23.186-49.366-16.374-87.418 6.905-38.448-13.06-65.947-39.437-74.522-24.414-7.933-54.318.353-73.442 31.202-20.369 32.875-48.213 19.719-70.548 54.042-24.218 37.157 7.826 71.686 39.728 74.778zm154.419-141.612c-16.415-6.301-26.86-21.229-29.102-38.8-6.663-52.248 54.598-97.52 93.334-67.92 49.002 37.417-6.233 128.984-64.232 106.72z" fill="#FAC663" fill-opacity=".15"/><path d="M288.959 277.189c-1.164-52.66 64.341-91.294 99.809-57.612 42.724 40.57-14.563 122.825-70.431 101.38-17.929-6.883-28.936-23.749-29.378-43.768z" fill="#FAC663" fill-opacity=".15"/></svg>